<mxfile host="app.diagrams.net" agent="Mozilla/5.0 (Windows NT 10.0; Win64; x64) AppleWebKit/537.36 (KHTML, like Gecko) Chrome/128.0.0.0 Safari/537.36 Edg/128.0.0.0" version="24.7.13">
  <diagram name="Page-1" id="hRDTYI0J6zpCB6Vyd8kY">
    <mxGraphModel dx="1400" dy="1940" grid="1" gridSize="10" guides="1" tooltips="1" connect="1" arrows="1" fold="1" page="1" pageScale="1" pageWidth="827" pageHeight="1169" math="0" shadow="0">
      <root>
        <mxCell id="0" />
        <mxCell id="1" parent="0" />
        <mxCell id="s7We-BM_-VMpIxA_GMsC-103" value="" style="edgeStyle=orthogonalEdgeStyle;rounded=0;orthogonalLoop=1;jettySize=auto;html=1;" edge="1" parent="1" source="s7We-BM_-VMpIxA_GMsC-2" target="s7We-BM_-VMpIxA_GMsC-90">
          <mxGeometry relative="1" as="geometry" />
        </mxCell>
        <mxCell id="s7We-BM_-VMpIxA_GMsC-2" value="Главная страница" style="rounded=0;whiteSpace=wrap;html=1;" vertex="1" parent="1">
          <mxGeometry x="375" y="30" width="130" height="40" as="geometry" />
        </mxCell>
        <mxCell id="s7We-BM_-VMpIxA_GMsC-131" value="" style="edgeStyle=orthogonalEdgeStyle;rounded=0;orthogonalLoop=1;jettySize=auto;html=1;" edge="1" parent="1" source="s7We-BM_-VMpIxA_GMsC-9" target="s7We-BM_-VMpIxA_GMsC-13">
          <mxGeometry relative="1" as="geometry">
            <Array as="points">
              <mxPoint x="810" y="90" />
              <mxPoint x="810" y="139" />
            </Array>
          </mxGeometry>
        </mxCell>
        <mxCell id="s7We-BM_-VMpIxA_GMsC-9" value="Пользователь проходит регистрацию по номеру" style="rounded=0;whiteSpace=wrap;html=1;" vertex="1" parent="1">
          <mxGeometry x="600" y="75" width="182.5" height="40" as="geometry" />
        </mxCell>
        <mxCell id="s7We-BM_-VMpIxA_GMsC-126" style="edgeStyle=orthogonalEdgeStyle;rounded=0;orthogonalLoop=1;jettySize=auto;html=1;entryX=0;entryY=0.5;entryDx=0;entryDy=0;" edge="1" parent="1" source="s7We-BM_-VMpIxA_GMsC-10" target="s7We-BM_-VMpIxA_GMsC-13">
          <mxGeometry relative="1" as="geometry">
            <Array as="points">
              <mxPoint x="810" y="185" />
              <mxPoint x="810" y="139" />
            </Array>
          </mxGeometry>
        </mxCell>
        <mxCell id="s7We-BM_-VMpIxA_GMsC-10" value="Пользователь нажимает на товар и ему предлогается пройти регистрацию" style="rounded=0;whiteSpace=wrap;html=1;" vertex="1" parent="1">
          <mxGeometry x="602.5" y="160" width="180" height="50" as="geometry" />
        </mxCell>
        <mxCell id="s7We-BM_-VMpIxA_GMsC-143" style="edgeStyle=orthogonalEdgeStyle;rounded=0;orthogonalLoop=1;jettySize=auto;html=1;entryX=1;entryY=0.5;entryDx=0;entryDy=0;" edge="1" parent="1" source="s7We-BM_-VMpIxA_GMsC-13" target="s7We-BM_-VMpIxA_GMsC-2">
          <mxGeometry relative="1" as="geometry">
            <mxPoint x="850" y="-40" as="targetPoint" />
            <Array as="points">
              <mxPoint x="915" y="50" />
            </Array>
          </mxGeometry>
        </mxCell>
        <mxCell id="s7We-BM_-VMpIxA_GMsC-13" value="Пользователь заполняет свои личные данные(адрес доставки и тд)" style="rounded=0;whiteSpace=wrap;html=1;" vertex="1" parent="1">
          <mxGeometry x="830" y="100" width="170" height="77.5" as="geometry" />
        </mxCell>
        <mxCell id="s7We-BM_-VMpIxA_GMsC-31" value="" style="edgeStyle=orthogonalEdgeStyle;rounded=0;orthogonalLoop=1;jettySize=auto;html=1;" edge="1" parent="1" source="s7We-BM_-VMpIxA_GMsC-17" target="s7We-BM_-VMpIxA_GMsC-30">
          <mxGeometry relative="1" as="geometry" />
        </mxCell>
        <mxCell id="s7We-BM_-VMpIxA_GMsC-33" value="" style="edgeStyle=orthogonalEdgeStyle;rounded=0;orthogonalLoop=1;jettySize=auto;html=1;" edge="1" parent="1" source="s7We-BM_-VMpIxA_GMsC-17" target="s7We-BM_-VMpIxA_GMsC-32">
          <mxGeometry relative="1" as="geometry" />
        </mxCell>
        <mxCell id="s7We-BM_-VMpIxA_GMsC-167" style="edgeStyle=orthogonalEdgeStyle;rounded=0;orthogonalLoop=1;jettySize=auto;html=1;entryX=0.5;entryY=0;entryDx=0;entryDy=0;" edge="1" parent="1" source="s7We-BM_-VMpIxA_GMsC-17" target="s7We-BM_-VMpIxA_GMsC-163">
          <mxGeometry relative="1" as="geometry" />
        </mxCell>
        <mxCell id="s7We-BM_-VMpIxA_GMsC-17" value="Блок с товарами" style="rounded=0;whiteSpace=wrap;html=1;" vertex="1" parent="1">
          <mxGeometry x="360" y="280" width="170" height="60" as="geometry" />
        </mxCell>
        <mxCell id="s7We-BM_-VMpIxA_GMsC-198" style="edgeStyle=orthogonalEdgeStyle;rounded=0;orthogonalLoop=1;jettySize=auto;html=1;exitX=0.5;exitY=1;exitDx=0;exitDy=0;entryX=0.5;entryY=0;entryDx=0;entryDy=0;" edge="1" parent="1" source="s7We-BM_-VMpIxA_GMsC-19" target="s7We-BM_-VMpIxA_GMsC-197">
          <mxGeometry relative="1" as="geometry" />
        </mxCell>
        <mxCell id="s7We-BM_-VMpIxA_GMsC-19" value="Товар добавлен в корзину&amp;nbsp; &amp;nbsp; &amp;nbsp;(резерв. на 1 час)" style="whiteSpace=wrap;html=1;rounded=0;" vertex="1" parent="1">
          <mxGeometry x="360" y="625" width="170" height="60" as="geometry" />
        </mxCell>
        <mxCell id="s7We-BM_-VMpIxA_GMsC-29" value="" style="edgeStyle=orthogonalEdgeStyle;rounded=0;orthogonalLoop=1;jettySize=auto;html=1;" edge="1" parent="1" source="s7We-BM_-VMpIxA_GMsC-24" target="s7We-BM_-VMpIxA_GMsC-28">
          <mxGeometry relative="1" as="geometry">
            <Array as="points">
              <mxPoint x="170" y="1110" />
            </Array>
          </mxGeometry>
        </mxCell>
        <mxCell id="s7We-BM_-VMpIxA_GMsC-179" style="edgeStyle=orthogonalEdgeStyle;rounded=0;orthogonalLoop=1;jettySize=auto;html=1;exitX=0;exitY=0.5;exitDx=0;exitDy=0;entryX=0;entryY=0.5;entryDx=0;entryDy=0;" edge="1" parent="1" source="s7We-BM_-VMpIxA_GMsC-24" target="s7We-BM_-VMpIxA_GMsC-112">
          <mxGeometry relative="1" as="geometry">
            <Array as="points">
              <mxPoint x="20" y="775" />
              <mxPoint x="20" y="230" />
            </Array>
          </mxGeometry>
        </mxCell>
        <mxCell id="s7We-BM_-VMpIxA_GMsC-24" value="Очистить корзину" style="whiteSpace=wrap;html=1;rounded=0;" vertex="1" parent="1">
          <mxGeometry x="90" y="750" width="170" height="50" as="geometry" />
        </mxCell>
        <mxCell id="s7We-BM_-VMpIxA_GMsC-210" style="edgeStyle=orthogonalEdgeStyle;rounded=0;orthogonalLoop=1;jettySize=auto;html=1;entryX=1;entryY=0.5;entryDx=0;entryDy=0;exitX=1;exitY=0.5;exitDx=0;exitDy=0;" edge="1" parent="1" source="s7We-BM_-VMpIxA_GMsC-26" target="s7We-BM_-VMpIxA_GMsC-112">
          <mxGeometry relative="1" as="geometry">
            <mxPoint x="600" y="1055" as="sourcePoint" />
            <mxPoint x="615" y="255" as="targetPoint" />
            <Array as="points">
              <mxPoint x="820" y="1050" />
              <mxPoint x="820" y="230" />
            </Array>
          </mxGeometry>
        </mxCell>
        <mxCell id="s7We-BM_-VMpIxA_GMsC-211" style="edgeStyle=orthogonalEdgeStyle;rounded=0;orthogonalLoop=1;jettySize=auto;html=1;entryX=0.5;entryY=0;entryDx=0;entryDy=0;" edge="1" parent="1" source="s7We-BM_-VMpIxA_GMsC-26" target="s7We-BM_-VMpIxA_GMsC-28">
          <mxGeometry relative="1" as="geometry" />
        </mxCell>
        <mxCell id="s7We-BM_-VMpIxA_GMsC-26" value="Оформить заказ" style="whiteSpace=wrap;html=1;rounded=0;" vertex="1" parent="1">
          <mxGeometry x="365" y="1030" width="170" height="40" as="geometry" />
        </mxCell>
        <mxCell id="s7We-BM_-VMpIxA_GMsC-192" style="edgeStyle=orthogonalEdgeStyle;rounded=0;orthogonalLoop=1;jettySize=auto;html=1;exitX=0.5;exitY=1;exitDx=0;exitDy=0;entryX=0.5;entryY=0;entryDx=0;entryDy=0;" edge="1" parent="1" source="s7We-BM_-VMpIxA_GMsC-28" target="s7We-BM_-VMpIxA_GMsC-189">
          <mxGeometry relative="1" as="geometry" />
        </mxCell>
        <mxCell id="s7We-BM_-VMpIxA_GMsC-28" value="Выход с сайта" style="whiteSpace=wrap;html=1;rounded=0;" vertex="1" parent="1">
          <mxGeometry x="360" y="1090" width="180" height="40" as="geometry" />
        </mxCell>
        <mxCell id="s7We-BM_-VMpIxA_GMsC-66" value="" style="edgeStyle=orthogonalEdgeStyle;rounded=0;orthogonalLoop=1;jettySize=auto;html=1;" edge="1" parent="1" source="s7We-BM_-VMpIxA_GMsC-30" target="s7We-BM_-VMpIxA_GMsC-65">
          <mxGeometry relative="1" as="geometry" />
        </mxCell>
        <mxCell id="s7We-BM_-VMpIxA_GMsC-30" value="Каталог" style="whiteSpace=wrap;html=1;rounded=0;" vertex="1" parent="1">
          <mxGeometry x="560" y="350" width="140" height="40" as="geometry" />
        </mxCell>
        <mxCell id="s7We-BM_-VMpIxA_GMsC-161" style="edgeStyle=orthogonalEdgeStyle;rounded=0;orthogonalLoop=1;jettySize=auto;html=1;entryX=1;entryY=0.5;entryDx=0;entryDy=0;" edge="1" parent="1" source="s7We-BM_-VMpIxA_GMsC-32" target="s7We-BM_-VMpIxA_GMsC-48">
          <mxGeometry relative="1" as="geometry" />
        </mxCell>
        <mxCell id="s7We-BM_-VMpIxA_GMsC-162" style="edgeStyle=orthogonalEdgeStyle;rounded=0;orthogonalLoop=1;jettySize=auto;html=1;exitX=0;exitY=0.5;exitDx=0;exitDy=0;entryX=1;entryY=0.5;entryDx=0;entryDy=0;" edge="1" parent="1" source="s7We-BM_-VMpIxA_GMsC-32" target="s7We-BM_-VMpIxA_GMsC-44">
          <mxGeometry relative="1" as="geometry" />
        </mxCell>
        <mxCell id="s7We-BM_-VMpIxA_GMsC-168" style="edgeStyle=orthogonalEdgeStyle;rounded=0;orthogonalLoop=1;jettySize=auto;html=1;entryX=0;entryY=0.5;entryDx=0;entryDy=0;" edge="1" parent="1" source="s7We-BM_-VMpIxA_GMsC-32" target="s7We-BM_-VMpIxA_GMsC-163">
          <mxGeometry relative="1" as="geometry">
            <Array as="points">
              <mxPoint x="270" y="444" />
            </Array>
          </mxGeometry>
        </mxCell>
        <mxCell id="s7We-BM_-VMpIxA_GMsC-32" value="Поиск" style="whiteSpace=wrap;html=1;rounded=0;" vertex="1" parent="1">
          <mxGeometry x="210" y="355" width="120" height="30" as="geometry" />
        </mxCell>
        <mxCell id="s7We-BM_-VMpIxA_GMsC-44" value="Рекомендации&lt;br&gt;по поиску" style="whiteSpace=wrap;html=1;rounded=0;" vertex="1" parent="1">
          <mxGeometry x="30" y="380" width="120" height="43.75" as="geometry" />
        </mxCell>
        <mxCell id="s7We-BM_-VMpIxA_GMsC-48" value="Прошлые запросы" style="whiteSpace=wrap;html=1;rounded=0;" vertex="1" parent="1">
          <mxGeometry x="30" y="340" width="120" height="30" as="geometry" />
        </mxCell>
        <mxCell id="s7We-BM_-VMpIxA_GMsC-70" value="" style="edgeStyle=orthogonalEdgeStyle;rounded=0;orthogonalLoop=1;jettySize=auto;html=1;entryX=0.5;entryY=0;entryDx=0;entryDy=0;" edge="1" parent="1" source="s7We-BM_-VMpIxA_GMsC-62" target="s7We-BM_-VMpIxA_GMsC-71">
          <mxGeometry relative="1" as="geometry">
            <mxPoint x="445" y="580" as="targetPoint" />
          </mxGeometry>
        </mxCell>
        <mxCell id="s7We-BM_-VMpIxA_GMsC-62" value="Добавление товара с карточки или модального окна" style="whiteSpace=wrap;html=1;rounded=0;" vertex="1" parent="1">
          <mxGeometry x="360" y="490" width="170" height="60" as="geometry" />
        </mxCell>
        <mxCell id="s7We-BM_-VMpIxA_GMsC-165" style="edgeStyle=orthogonalEdgeStyle;rounded=0;orthogonalLoop=1;jettySize=auto;html=1;entryX=1;entryY=0.5;entryDx=0;entryDy=0;" edge="1" parent="1" source="s7We-BM_-VMpIxA_GMsC-65" target="s7We-BM_-VMpIxA_GMsC-163">
          <mxGeometry relative="1" as="geometry" />
        </mxCell>
        <mxCell id="s7We-BM_-VMpIxA_GMsC-65" value="Выбор категории" style="whiteSpace=wrap;html=1;rounded=0;" vertex="1" parent="1">
          <mxGeometry x="560" y="423.75" width="140" height="40" as="geometry" />
        </mxCell>
        <mxCell id="s7We-BM_-VMpIxA_GMsC-73" value="" style="edgeStyle=orthogonalEdgeStyle;rounded=0;orthogonalLoop=1;jettySize=auto;html=1;" edge="1" parent="1" source="s7We-BM_-VMpIxA_GMsC-71" target="s7We-BM_-VMpIxA_GMsC-19">
          <mxGeometry relative="1" as="geometry" />
        </mxCell>
        <mxCell id="s7We-BM_-VMpIxA_GMsC-71" value="Выбор кол-во" style="whiteSpace=wrap;html=1;" vertex="1" parent="1">
          <mxGeometry x="360" y="572" width="170" height="25" as="geometry" />
        </mxCell>
        <mxCell id="s7We-BM_-VMpIxA_GMsC-77" value="" style="edgeStyle=orthogonalEdgeStyle;rounded=0;orthogonalLoop=1;jettySize=auto;html=1;" edge="1" parent="1" source="s7We-BM_-VMpIxA_GMsC-74" target="s7We-BM_-VMpIxA_GMsC-76">
          <mxGeometry relative="1" as="geometry" />
        </mxCell>
        <mxCell id="s7We-BM_-VMpIxA_GMsC-176" style="edgeStyle=orthogonalEdgeStyle;rounded=0;orthogonalLoop=1;jettySize=auto;html=1;entryX=0;entryY=0.5;entryDx=0;entryDy=0;" edge="1" parent="1" source="s7We-BM_-VMpIxA_GMsC-74" target="s7We-BM_-VMpIxA_GMsC-182">
          <mxGeometry relative="1" as="geometry">
            <mxPoint x="655" y="790" as="targetPoint" />
          </mxGeometry>
        </mxCell>
        <mxCell id="s7We-BM_-VMpIxA_GMsC-74" value="Страница с оформлением заказа" style="whiteSpace=wrap;html=1;rounded=0;" vertex="1" parent="1">
          <mxGeometry x="360" y="860" width="173" height="40" as="geometry" />
        </mxCell>
        <mxCell id="s7We-BM_-VMpIxA_GMsC-79" value="" style="edgeStyle=orthogonalEdgeStyle;rounded=0;orthogonalLoop=1;jettySize=auto;html=1;" edge="1" parent="1" source="s7We-BM_-VMpIxA_GMsC-76" target="s7We-BM_-VMpIxA_GMsC-78">
          <mxGeometry relative="1" as="geometry" />
        </mxCell>
        <mxCell id="s7We-BM_-VMpIxA_GMsC-76" value="Выбор даты доставки" style="whiteSpace=wrap;html=1;rounded=0;" vertex="1" parent="1">
          <mxGeometry x="360" y="920" width="173" height="30" as="geometry" />
        </mxCell>
        <mxCell id="s7We-BM_-VMpIxA_GMsC-209" style="edgeStyle=orthogonalEdgeStyle;rounded=0;orthogonalLoop=1;jettySize=auto;html=1;exitX=0.5;exitY=1;exitDx=0;exitDy=0;entryX=0.5;entryY=0;entryDx=0;entryDy=0;" edge="1" parent="1" source="s7We-BM_-VMpIxA_GMsC-78" target="s7We-BM_-VMpIxA_GMsC-26">
          <mxGeometry relative="1" as="geometry" />
        </mxCell>
        <mxCell id="s7We-BM_-VMpIxA_GMsC-78" value="Способ оплаты" style="whiteSpace=wrap;html=1;rounded=0;" vertex="1" parent="1">
          <mxGeometry x="358.5" y="970" width="176" height="30" as="geometry" />
        </mxCell>
        <mxCell id="s7We-BM_-VMpIxA_GMsC-106" value="" style="edgeStyle=orthogonalEdgeStyle;rounded=0;orthogonalLoop=1;jettySize=auto;html=1;entryX=0;entryY=0.5;entryDx=0;entryDy=0;" edge="1" parent="1" source="s7We-BM_-VMpIxA_GMsC-90" target="s7We-BM_-VMpIxA_GMsC-113">
          <mxGeometry relative="1" as="geometry">
            <mxPoint x="590" y="130" as="targetPoint" />
          </mxGeometry>
        </mxCell>
        <mxCell id="s7We-BM_-VMpIxA_GMsC-109" value="" style="edgeStyle=orthogonalEdgeStyle;rounded=0;orthogonalLoop=1;jettySize=auto;html=1;" edge="1" parent="1" source="s7We-BM_-VMpIxA_GMsC-90" target="s7We-BM_-VMpIxA_GMsC-108">
          <mxGeometry relative="1" as="geometry" />
        </mxCell>
        <mxCell id="s7We-BM_-VMpIxA_GMsC-90" value="Зарегистрирован на сайте" style="rounded=0;whiteSpace=wrap;html=1;" vertex="1" parent="1">
          <mxGeometry x="380" y="110" width="120" height="40" as="geometry" />
        </mxCell>
        <mxCell id="s7We-BM_-VMpIxA_GMsC-138" style="edgeStyle=orthogonalEdgeStyle;rounded=0;orthogonalLoop=1;jettySize=auto;html=1;entryX=0;entryY=0.5;entryDx=0;entryDy=0;" edge="1" parent="1" source="s7We-BM_-VMpIxA_GMsC-98" target="s7We-BM_-VMpIxA_GMsC-2">
          <mxGeometry relative="1" as="geometry">
            <mxPoint x="350" y="50" as="targetPoint" />
          </mxGeometry>
        </mxCell>
        <mxCell id="s7We-BM_-VMpIxA_GMsC-98" value="Вход" style="rounded=0;whiteSpace=wrap;html=1;" vertex="1" parent="1">
          <mxGeometry x="170" y="37.5" width="130" height="25" as="geometry" />
        </mxCell>
        <mxCell id="s7We-BM_-VMpIxA_GMsC-99" style="edgeStyle=orthogonalEdgeStyle;rounded=0;orthogonalLoop=1;jettySize=auto;html=1;exitX=0.5;exitY=1;exitDx=0;exitDy=0;" edge="1" parent="1" source="s7We-BM_-VMpIxA_GMsC-98" target="s7We-BM_-VMpIxA_GMsC-98">
          <mxGeometry relative="1" as="geometry" />
        </mxCell>
        <mxCell id="s7We-BM_-VMpIxA_GMsC-107" value="&lt;font size=&quot;3&quot;&gt;&lt;b&gt;Нет&lt;/b&gt;&lt;/font&gt;" style="text;html=1;align=center;verticalAlign=middle;whiteSpace=wrap;rounded=0;" vertex="1" parent="1">
          <mxGeometry x="500" y="100" width="80" height="30" as="geometry" />
        </mxCell>
        <mxCell id="s7We-BM_-VMpIxA_GMsC-145" value="" style="edgeStyle=orthogonalEdgeStyle;rounded=0;orthogonalLoop=1;jettySize=auto;html=1;" edge="1" parent="1" source="s7We-BM_-VMpIxA_GMsC-108" target="s7We-BM_-VMpIxA_GMsC-98">
          <mxGeometry relative="1" as="geometry" />
        </mxCell>
        <mxCell id="s7We-BM_-VMpIxA_GMsC-147" value="&lt;b&gt;&lt;font style=&quot;font-size: 14px;&quot;&gt;Нет&lt;/font&gt;&lt;/b&gt;" style="edgeLabel;html=1;align=center;verticalAlign=middle;resizable=0;points=[];fillColor=#FF2B1C;" vertex="1" connectable="0" parent="s7We-BM_-VMpIxA_GMsC-145">
          <mxGeometry x="0.4024" y="-2" relative="1" as="geometry">
            <mxPoint x="-2" y="13" as="offset" />
          </mxGeometry>
        </mxCell>
        <mxCell id="s7We-BM_-VMpIxA_GMsC-148" style="edgeStyle=orthogonalEdgeStyle;rounded=0;orthogonalLoop=1;jettySize=auto;html=1;entryX=0.5;entryY=0;entryDx=0;entryDy=0;exitX=0.5;exitY=1;exitDx=0;exitDy=0;" edge="1" parent="1" source="s7We-BM_-VMpIxA_GMsC-108" target="s7We-BM_-VMpIxA_GMsC-112">
          <mxGeometry relative="1" as="geometry">
            <mxPoint x="439.97" y="230" as="targetPoint" />
            <mxPoint x="239.9688235294117" y="160" as="sourcePoint" />
            <Array as="points">
              <mxPoint x="240" y="150" />
              <mxPoint x="240" y="190" />
            </Array>
          </mxGeometry>
        </mxCell>
        <mxCell id="s7We-BM_-VMpIxA_GMsC-152" value="&lt;font style=&quot;font-size: 14px;&quot;&gt;&lt;b&gt;Да&lt;/b&gt;&lt;/font&gt;" style="edgeLabel;html=1;align=center;verticalAlign=middle;resizable=0;points=[];" vertex="1" connectable="0" parent="s7We-BM_-VMpIxA_GMsC-148">
          <mxGeometry x="-0.7688" y="3" relative="1" as="geometry">
            <mxPoint x="-3" y="-7" as="offset" />
          </mxGeometry>
        </mxCell>
        <mxCell id="s7We-BM_-VMpIxA_GMsC-108" value="Авторизован" style="whiteSpace=wrap;html=1;rounded=0;" vertex="1" parent="1">
          <mxGeometry x="175" y="110" width="120" height="40" as="geometry" />
        </mxCell>
        <mxCell id="s7We-BM_-VMpIxA_GMsC-110" value="&lt;font size=&quot;3&quot;&gt;&lt;b&gt;Да&lt;/b&gt;&lt;/font&gt;" style="text;html=1;align=center;verticalAlign=middle;whiteSpace=wrap;rounded=0;" vertex="1" parent="1">
          <mxGeometry x="310" y="100" width="60" height="30" as="geometry" />
        </mxCell>
        <mxCell id="s7We-BM_-VMpIxA_GMsC-158" style="edgeStyle=orthogonalEdgeStyle;rounded=0;orthogonalLoop=1;jettySize=auto;html=1;entryX=0.5;entryY=0;entryDx=0;entryDy=0;" edge="1" parent="1" source="s7We-BM_-VMpIxA_GMsC-112" target="s7We-BM_-VMpIxA_GMsC-17">
          <mxGeometry relative="1" as="geometry" />
        </mxCell>
        <mxCell id="s7We-BM_-VMpIxA_GMsC-112" value="" style="ellipse;whiteSpace=wrap;html=1;aspect=fixed;" vertex="1" parent="1">
          <mxGeometry x="425" y="210" width="40" height="40" as="geometry" />
        </mxCell>
        <mxCell id="s7We-BM_-VMpIxA_GMsC-117" value="" style="edgeStyle=orthogonalEdgeStyle;rounded=0;orthogonalLoop=1;jettySize=auto;html=1;" edge="1" parent="1" source="s7We-BM_-VMpIxA_GMsC-113" target="s7We-BM_-VMpIxA_GMsC-9">
          <mxGeometry relative="1" as="geometry">
            <Array as="points">
              <mxPoint x="575" y="90" />
            </Array>
          </mxGeometry>
        </mxCell>
        <mxCell id="s7We-BM_-VMpIxA_GMsC-132" style="edgeStyle=orthogonalEdgeStyle;rounded=0;orthogonalLoop=1;jettySize=auto;html=1;entryX=0;entryY=0.5;entryDx=0;entryDy=0;" edge="1" parent="1" source="s7We-BM_-VMpIxA_GMsC-113" target="s7We-BM_-VMpIxA_GMsC-10">
          <mxGeometry relative="1" as="geometry">
            <Array as="points">
              <mxPoint x="575" y="185" />
            </Array>
          </mxGeometry>
        </mxCell>
        <mxCell id="s7We-BM_-VMpIxA_GMsC-113" value="" style="ellipse;whiteSpace=wrap;html=1;aspect=fixed;" vertex="1" parent="1">
          <mxGeometry x="560" y="115" width="30" height="30" as="geometry" />
        </mxCell>
        <mxCell id="s7We-BM_-VMpIxA_GMsC-141" style="edgeStyle=orthogonalEdgeStyle;rounded=0;orthogonalLoop=1;jettySize=auto;html=1;entryX=0.5;entryY=0;entryDx=0;entryDy=0;" edge="1" parent="1" source="s7We-BM_-VMpIxA_GMsC-139" target="s7We-BM_-VMpIxA_GMsC-2">
          <mxGeometry relative="1" as="geometry" />
        </mxCell>
        <mxCell id="s7We-BM_-VMpIxA_GMsC-139" value="Начало" style="rounded=1;whiteSpace=wrap;html=1;" vertex="1" parent="1">
          <mxGeometry x="385" y="-27" width="110" height="27.5" as="geometry" />
        </mxCell>
        <mxCell id="s7We-BM_-VMpIxA_GMsC-169" style="edgeStyle=orthogonalEdgeStyle;rounded=0;orthogonalLoop=1;jettySize=auto;html=1;" edge="1" parent="1" source="s7We-BM_-VMpIxA_GMsC-163" target="s7We-BM_-VMpIxA_GMsC-62">
          <mxGeometry relative="1" as="geometry" />
        </mxCell>
        <mxCell id="s7We-BM_-VMpIxA_GMsC-163" value="" style="ellipse;whiteSpace=wrap;html=1;aspect=fixed;" vertex="1" parent="1">
          <mxGeometry x="425" y="423.75" width="40" height="40" as="geometry" />
        </mxCell>
        <mxCell id="s7We-BM_-VMpIxA_GMsC-177" style="edgeStyle=orthogonalEdgeStyle;rounded=0;orthogonalLoop=1;jettySize=auto;html=1;entryX=1;entryY=0.5;entryDx=0;entryDy=0;exitX=0.5;exitY=0;exitDx=0;exitDy=0;" edge="1" parent="1" source="s7We-BM_-VMpIxA_GMsC-182" target="s7We-BM_-VMpIxA_GMsC-112">
          <mxGeometry relative="1" as="geometry">
            <mxPoint x="720" y="700" as="sourcePoint" />
            <Array as="points">
              <mxPoint x="750" y="230" />
            </Array>
          </mxGeometry>
        </mxCell>
        <mxCell id="s7We-BM_-VMpIxA_GMsC-185" value="" style="edgeStyle=orthogonalEdgeStyle;rounded=0;orthogonalLoop=1;jettySize=auto;html=1;" edge="1" parent="1" source="s7We-BM_-VMpIxA_GMsC-182" target="s7We-BM_-VMpIxA_GMsC-184">
          <mxGeometry relative="1" as="geometry" />
        </mxCell>
        <mxCell id="s7We-BM_-VMpIxA_GMsC-201" style="edgeStyle=orthogonalEdgeStyle;rounded=0;orthogonalLoop=1;jettySize=auto;html=1;entryX=1;entryY=0.5;entryDx=0;entryDy=0;" edge="1" parent="1" source="s7We-BM_-VMpIxA_GMsC-182" target="s7We-BM_-VMpIxA_GMsC-74">
          <mxGeometry relative="1" as="geometry" />
        </mxCell>
        <mxCell id="s7We-BM_-VMpIxA_GMsC-182" value="" style="ellipse;whiteSpace=wrap;html=1;aspect=fixed;" vertex="1" parent="1">
          <mxGeometry x="730" y="860" width="40" height="40" as="geometry" />
        </mxCell>
        <mxCell id="s7We-BM_-VMpIxA_GMsC-188" style="edgeStyle=orthogonalEdgeStyle;rounded=0;orthogonalLoop=1;jettySize=auto;html=1;entryX=1;entryY=0.5;entryDx=0;entryDy=0;" edge="1" parent="1" source="s7We-BM_-VMpIxA_GMsC-184" target="s7We-BM_-VMpIxA_GMsC-28">
          <mxGeometry relative="1" as="geometry">
            <Array as="points">
              <mxPoint x="720" y="1110" />
            </Array>
          </mxGeometry>
        </mxCell>
        <mxCell id="s7We-BM_-VMpIxA_GMsC-195" style="edgeStyle=orthogonalEdgeStyle;rounded=0;orthogonalLoop=1;jettySize=auto;html=1;entryX=1;entryY=0.5;entryDx=0;entryDy=0;exitX=1;exitY=0.5;exitDx=0;exitDy=0;" edge="1" parent="1" source="s7We-BM_-VMpIxA_GMsC-184" target="s7We-BM_-VMpIxA_GMsC-112">
          <mxGeometry relative="1" as="geometry">
            <mxPoint x="800" y="230" as="targetPoint" />
            <mxPoint x="995" y="870.0588235294117" as="sourcePoint" />
            <Array as="points">
              <mxPoint x="790" y="980" />
              <mxPoint x="790" y="230" />
            </Array>
          </mxGeometry>
        </mxCell>
        <mxCell id="s7We-BM_-VMpIxA_GMsC-184" value="Отменить заказ" style="rounded=0;whiteSpace=wrap;html=1;" vertex="1" parent="1">
          <mxGeometry x="660" y="960" width="120" height="40" as="geometry" />
        </mxCell>
        <mxCell id="s7We-BM_-VMpIxA_GMsC-189" value="Конец" style="rounded=1;whiteSpace=wrap;html=1;" vertex="1" parent="1">
          <mxGeometry x="360" y="1180" width="180" height="40" as="geometry" />
        </mxCell>
        <mxCell id="s7We-BM_-VMpIxA_GMsC-204" style="edgeStyle=orthogonalEdgeStyle;rounded=0;orthogonalLoop=1;jettySize=auto;html=1;entryX=1;entryY=0.5;entryDx=0;entryDy=0;exitX=1;exitY=0.5;exitDx=0;exitDy=0;" edge="1" parent="1" source="s7We-BM_-VMpIxA_GMsC-197" target="s7We-BM_-VMpIxA_GMsC-112">
          <mxGeometry relative="1" as="geometry">
            <mxPoint x="837" y="239.5" as="targetPoint" />
            <mxPoint x="827" y="730" as="sourcePoint" />
            <Array as="points">
              <mxPoint x="750" y="720" />
              <mxPoint x="750" y="230" />
            </Array>
          </mxGeometry>
        </mxCell>
        <mxCell id="s7We-BM_-VMpIxA_GMsC-205" style="edgeStyle=orthogonalEdgeStyle;rounded=0;orthogonalLoop=1;jettySize=auto;html=1;entryX=0.5;entryY=0;entryDx=0;entryDy=0;" edge="1" parent="1" source="s7We-BM_-VMpIxA_GMsC-197" target="s7We-BM_-VMpIxA_GMsC-199">
          <mxGeometry relative="1" as="geometry" />
        </mxCell>
        <mxCell id="s7We-BM_-VMpIxA_GMsC-197" value="" style="ellipse;whiteSpace=wrap;html=1;aspect=fixed;" vertex="1" parent="1">
          <mxGeometry x="435" y="710" width="20" height="20" as="geometry" />
        </mxCell>
        <mxCell id="s7We-BM_-VMpIxA_GMsC-206" style="edgeStyle=orthogonalEdgeStyle;rounded=0;orthogonalLoop=1;jettySize=auto;html=1;entryX=1;entryY=0.5;entryDx=0;entryDy=0;" edge="1" parent="1" source="s7We-BM_-VMpIxA_GMsC-199" target="s7We-BM_-VMpIxA_GMsC-24">
          <mxGeometry relative="1" as="geometry" />
        </mxCell>
        <mxCell id="s7We-BM_-VMpIxA_GMsC-207" style="edgeStyle=orthogonalEdgeStyle;rounded=0;orthogonalLoop=1;jettySize=auto;html=1;exitX=0.5;exitY=1;exitDx=0;exitDy=0;entryX=0.5;entryY=0;entryDx=0;entryDy=0;" edge="1" parent="1" source="s7We-BM_-VMpIxA_GMsC-199" target="s7We-BM_-VMpIxA_GMsC-203">
          <mxGeometry relative="1" as="geometry" />
        </mxCell>
        <mxCell id="s7We-BM_-VMpIxA_GMsC-199" value="Корзина с товарами" style="rounded=0;whiteSpace=wrap;html=1;" vertex="1" parent="1">
          <mxGeometry x="360" y="760" width="170" height="30" as="geometry" />
        </mxCell>
        <mxCell id="s7We-BM_-VMpIxA_GMsC-202" style="edgeStyle=orthogonalEdgeStyle;rounded=0;orthogonalLoop=1;jettySize=auto;html=1;exitX=0.5;exitY=1;exitDx=0;exitDy=0;" edge="1" parent="1" source="s7We-BM_-VMpIxA_GMsC-78" target="s7We-BM_-VMpIxA_GMsC-78">
          <mxGeometry relative="1" as="geometry" />
        </mxCell>
        <mxCell id="s7We-BM_-VMpIxA_GMsC-208" style="edgeStyle=orthogonalEdgeStyle;rounded=0;orthogonalLoop=1;jettySize=auto;html=1;exitX=0.5;exitY=1;exitDx=0;exitDy=0;entryX=0.5;entryY=0;entryDx=0;entryDy=0;" edge="1" parent="1" source="s7We-BM_-VMpIxA_GMsC-203" target="s7We-BM_-VMpIxA_GMsC-74">
          <mxGeometry relative="1" as="geometry" />
        </mxCell>
        <mxCell id="s7We-BM_-VMpIxA_GMsC-203" value="Перейти на страницу оформления заказа" style="rounded=0;whiteSpace=wrap;html=1;" vertex="1" parent="1">
          <mxGeometry x="358.5" y="810" width="173" height="30" as="geometry" />
        </mxCell>
      </root>
    </mxGraphModel>
  </diagram>
</mxfile>
